<?xml version="1.0" encoding="UTF-8" standalone="no"?>
<!-- Created with Inkscape (http://www.inkscape.org/) -->

<svg
   xmlns:dc="http://purl.org/dc/elements/1.1/"
   xmlns:cc="http://creativecommons.org/ns#"
   xmlns:rdf="http://www.w3.org/1999/02/22-rdf-syntax-ns#"
   xmlns:svg="http://www.w3.org/2000/svg"
   xmlns="http://www.w3.org/2000/svg"
   xmlns:sodipodi="http://sodipodi.sourceforge.net/DTD/sodipodi-0.dtd"
   xmlns:inkscape="http://www.inkscape.org/namespaces/inkscape"
   width="200mm"
   height="200mm"
   viewBox="0 0 200 200"
   version="1.1"
   id="svg8"
   inkscape:version="0.92.2 5c3e80d, 2017-08-06"
   sodipodi:docname="logo.svg">
  <defs
     id="defs2" />
  <sodipodi:namedview
     id="base"
     pagecolor="#ffffff"
     bordercolor="#666666"
     borderopacity="1.0"
     inkscape:pageopacity="0.0"
     inkscape:pageshadow="2"
     inkscape:zoom="0.98994949"
     inkscape:cx="380.82378"
     inkscape:cy="375.29608"
     inkscape:document-units="mm"
     inkscape:current-layer="layer1"
     showgrid="false"
     inkscape:window-width="1920"
     inkscape:window-height="1055"
     inkscape:window-x="0"
     inkscape:window-y="0"
     inkscape:window-maximized="1" />
  <metadata
     id="metadata5">
    <rdf:RDF>
      <cc:Work
         rdf:about="">
        <dc:format>image/svg+xml</dc:format>
        <dc:type
           rdf:resource="http://purl.org/dc/dcmitype/StillImage" />
        <dc:title></dc:title>
      </cc:Work>
    </rdf:RDF>
  </metadata>
  <g
     inkscape:label="Layer 1"
     inkscape:groupmode="layer"
     id="layer1"
     transform="translate(0,-97)">
    <path
       sodipodi:type="star"
       style="fill:#0acc58;fill-opacity:1;stroke:#fffff6;stroke-width:2.88875508;stroke-miterlimit:4;stroke-dasharray:none;stroke-opacity:0.41206031"
       id="path815"
       sodipodi:sides="40"
       sodipodi:cx="99.486004"
       sodipodi:cy="197.41672"
       sodipodi:r1="52.803043"
       sodipodi:r2="82.504761"
       sodipodi:arg1="0.73511236"
       sodipodi:arg2="0.81365218"
       inkscape:flatsided="false"
       inkscape:rounded="1.53"
       inkscape:randomized="0"
       d="m 138.65295,232.83016 c -30.93818,34.21735 51.02881,-7.13343 17.50134,24.55106 -33.52748,31.68448 12.38662,-47.81627 -23.52343,-18.86 -35.91006,28.95628 51.51647,0.93707 13.44523,26.98661 -38.07124,26.04954 19.71424,-45.28988 -20.28346,-22.30768 -39.997707,22.98221 50.73563,8.98448 9.05806,28.75766 -41.677563,19.77318 26.55643,-41.6483 -16.54405,-25.20606 -43.100474,16.44223 48.70552,16.81066 4.44786,29.82059 -44.257653,13.00993 32.7447,-36.9812 -12.39727,-27.48379 -45.14197,9.4974 45.4761,24.22292 -0.27187,30.14925 -45.747971,5.92633 38.12669,-31.4035 -7.94523,-29.08479 -46.071917,2.31872 41.12692,31.03873 -4.984903,29.73554 -46.111819,-1.30319 42.569883,-25.05255 -3.297546,-29.96961 -45.867425,-4.91707 35.765049,37.09025 -9.575195,28.58963 -45.340242,-8.50062 45.964854,-18.08471 1.431332,-30.11648 C 41.180296,236.36031 115.23634,290.62058 71.784106,275.13184 28.331868,259.6431 120.01213,264.46027 77.909072,245.61005 35.806016,226.75983 100.46213,291.93698 59.967839,269.84151 19.473543,247.74603 109.2715,266.84585 70.635622,241.64133 31.999748,216.43682 85.663889,290.92598 49.12464,262.76783 12.585391,234.60968 98.289912,267.52185 64.072564,236.58366 29.855216,205.64547 71.205991,287.61247 39.521505,254.085 7.8370203,220.55752 87.337779,266.47162 58.381503,230.56157 29.425226,194.65151 57.44444,282.07804 31.394896,244.0068 5.3453519,205.93556 76.684777,263.72104 53.70257,223.72334 30.720364,183.72563 44.718092,274.45897 24.944915,232.7814 5.1717389,191.10384 66.593216,259.33783 50.150978,216.23735 c -16.442237,-43.10047 -16.810666,48.70552 -29.820594,4.44786 -13.0099278,-44.25765 36.981201,32.7447 27.483795,-12.39727 -9.497407,-45.14197 -24.222921,45.4761 -30.149252,-0.27187 -5.926332,-45.74797 31.403502,38.12669 29.084784,-7.94523 -2.318718,-46.07192 -31.038726,41.12692 -29.735535,-4.9849 1.303191,-46.11182 25.052544,42.56988 29.96961,-3.29755 4.917065,-45.86742 -37.0902545,35.76505 -28.58963,-9.57519 8.500624,-45.34025 18.084709,45.96485 30.116483,1.43133 12.031774,-44.53352 -42.2284972,29.52252 -26.739753,-13.92971 15.488744,-43.45224 10.671569,48.22802 29.52179,6.12496 18.85022,-42.10305 -46.3269354,22.55306 -24.231456,-17.94123 22.095479,-40.4943 2.99566,49.30366 28.200172,10.66778 C 80.465904,129.93046 5.9767421,183.5946 34.134893,147.05535 62.293044,110.5161 29.38088,196.22062 60.319065,162.00327 91.25725,127.78593 9.290252,169.1367 42.817727,137.45222 c 33.527475,-31.68449 -12.386626,47.81627 23.523431,18.85999 35.910062,-28.95627 -51.516477,-0.93706 -13.445235,-26.9866 38.071241,-26.04955 -19.71424,45.28988 20.283465,22.30767 39.997702,-22.98221 -50.735636,-8.98448 -9.058067,-28.75765 41.677569,-19.77318 -26.556423,41.6483 16.544052,25.20606 43.100477,-16.44224 -48.705513,-16.81067 -4.447859,-29.8206 44.257656,-13.00992 -32.744699,36.98121 12.397271,27.4838 45.141975,-9.49741 -45.4761,-24.22292 0.271871,-30.14925 45.747974,-5.92633 -38.126692,31.4035 7.945227,29.08478 46.071917,-2.31872 -41.126914,-31.03872 4.984907,-29.73553 46.11182,1.30319 -42.569881,25.05254 3.29754,29.96961 45.86743,4.91706 -35.765043,-37.09026 9.5752,-28.58963 45.34024,8.50062 -45.964855,18.08471 -1.43133,30.11648 44.53352,12.03177 -29.522529,-42.2285 13.92971,-26.73975 43.45224,15.48874 -48.228023,10.67156 -6.12497,29.52179 42.10306,18.85022 -22.553059,-46.32694 17.94124,-24.23146 40.49429,22.09548 -49.30366,2.99566 -10.66779,28.20017 38.63588,25.20451 -15.02826,-49.28465 21.51099,-21.1265 36.53924,28.15815 -49.16528,-4.75401 -14.94793,26.18417 34.21735,30.93819 -7.13343,-51.02881 24.55106,-17.50133 31.68449,33.52747 -47.81627,-12.38663 -18.86,23.52343 28.95628,35.91006 0.93707,-51.51648 26.98661,-13.44524 26.04954,38.07124 -45.28988,-19.71424 -22.30768,20.28347 22.98221,39.9977 8.98448,-50.73564 28.75766,-9.05807 19.77318,41.67757 -41.6483,-26.55642 -25.20606,16.54405 16.44223,43.10048 16.81066,-48.70551 29.82059,-4.44786 13.00993,44.25766 -36.9812,-32.74469 -27.48379,12.39728 9.4974,45.14197 24.22292,-45.4761 30.14925,0.27187 5.92633,45.74797 -31.4035,-38.1267 -29.08479,7.94522 2.31872,46.07192 31.03873,-41.12691 29.73554,4.98491 -1.30319,46.11182 -25.05254,-42.56988 -29.96961,3.29754 -4.91707,45.86743 37.09025,-35.76504 28.58963,9.5752 -8.50062,45.34024 -18.08471,-45.96486 -30.11648,-1.43133 -12.03178,44.53352 42.22849,-29.52253 26.73975,13.92971 -15.48874,43.45224 -10.67157,-48.22802 -29.52179,-6.12497 -18.85022,42.10306 46.32693,-22.55306 24.23146,17.94124 -22.09548,40.49429 -2.99566,-49.30366 -28.20018,-10.66779 -25.20451,38.63588 49.28465,-15.02826 21.1265,21.51099 -28.15815,36.53924 4.75402,-49.16528 -26.18417,-14.94793 z"
       inkscape:transform-center-x="-1.8727326"
       inkscape:transform-center-y="0.99716335" />
    <path
       sodipodi:type="star"
       style="fill:#0a0058;fill-opacity:1;stroke:#ffff15;stroke-width:3.64681697;stroke-miterlimit:4;stroke-dasharray:none;stroke-opacity:0.48743723"
       id="path817"
       sodipodi:sides="3"
       sodipodi:cx="170.93314"
       sodipodi:cy="333.02271"
       sodipodi:r1="24.407757"
       sodipodi:r2="15.620965"
       sodipodi:arg1="0.72007069"
       sodipodi:arg2="1.7672682"
       inkscape:flatsided="false"
       inkscape:rounded="1.53"
       inkscape:randomized="1"
       d="m 192.32783,334.34604 c -20.45501,19.07779 9.6598,24.69112 -18.84252,-4.81259 -28.50233,-29.50371 -17.5424,28.23832 -23.8543,-0.0461 -6.3119,-28.28446 37.46066,22.09277 10.09613,-2.21375 -27.36454,-24.30652 8.85064,-48.48562 24.25035,-20.79964 15.39971,27.68597 -4.27411,-14.26702 8.69615,2.80925 12.97027,17.07626 20.1092,5.98507 -0.34581,25.06286 z"
       transform="translate(-75.439252,-124.80273)" />
  </g>
</svg>
